<?xml version="1.0" standalone="no"?><!DOCTYPE svg PUBLIC "-//W3C//DTD SVG 1.1//EN" "http://www.w3.org/Graphics/SVG/1.1/DTD/svg11.dtd"><svg t="1740875284586" class="icon" viewBox="0 0 1024 1024" version="1.1" xmlns="http://www.w3.org/2000/svg" p-id="1156" xmlns:xlink="http://www.w3.org/1999/xlink" width="200" height="200"><path d="M813 176.3c21.2 20.8 21.2 36.3 2.3 59-3 3.5-0.8 13.7 2 19.2 8.3 16.4 18.9 31.7 26.7 48.3 1.6 3.5-4.1 12-8.5 16.1-4.1 4-10.9 5.3-17.1 8.1 10 9 18.7 16.9 27.5 24.8-7.6 8.4-15.2 16.8-24.2 26.8 5.3 2.4 13 5.8 24 10.7-8.7 3.4-15.2 4.9-20.6 8.3-5.3 3.3-13.2 8.4-13.1 12.8 0 7.1 4.2 15.2 8.9 21.1 9.2 11.6 20 21.9 30.1 32.8 0.9 1 2.2 2.9 1.8 3.7-11.5 23.9 6.5 45.6 4.8 68.9-2.1 28.7-16 44.6-44.8 48.1-3.2 0.4-8.1 4.3-8.2 6.8-0.1 2.9 3.6 7.8 6.6 8.7 6 1.8 12.8 0.6 18.8 2.2 13.7 3.6 27.1 8.1 43.9 13.2-21.7 25.4-18.8 49.3-13.2 73.7 0.7 2.9-0.3 6.6-1.6 9.5-10.8 25-9.5 28.2 13.3 39.4 3.8 1.8 8.6 7.1 8.4 10.3-0.4 4.8-4.1 10.4-8.1 13.4-5.7 4.3-13 6.6-27 13.2 41.5 9.2 29.2 35.6 28.7 57.5-0.1 4.9-3 10.8-6.5 14.4-17.7 18.1-17 29 3.5 43.5 1.7 1.2 2.9 3 5.4 5.8-17.6 22.1-42.2 26.3-67.6 27-31.5 0.9-63 0.6-94.5 0.7-39.8 0.1-79.6-0.2-119.4 0.2-10.5 0.1-21 3.2-31.4 2.9-56.5-1.5-113-3.4-169.5-5.9-11.4-0.5-23.2-0.7-27.1-17.5-1.4-5.9-15.5-11.7-24.2-12.5-26.5-2.7-53.5-1.3-80-4.5-24.9-3-49.8-8.4-73.6-16.1-6.9-2.2-13.3-16.2-13.9-25.2-2.3-34.9-1.9-69.9-2.9-104.9-0.8-26.5-3.6-53.1-2.7-79.6 0.6-15.8 6.6-31.5 11.3-51.7-21.2-14.4-32.5-38.2-17.8-65.5-1.7-14.1-4.3-24.5-3.8-34.8 0.9-20.5 7.1-41.4 4.5-61.3-3.1-24.6 13.1-51.6-7.6-73.7-16.6-17.8 2.6-34.6 0.6-52.5-2.8-25.2 6.8-50.5-8-76.2-11.3-19.7-4.5-42.1 14.3-59.7-14.1-10.5-20-17.5-9.7-39.6 16.6-35.8 16.9-41 59.1-38.8 28.8 1.5 57.9-1.6 86.9-2.3 9-0.2 18.8-1.7 27 1.1 40.6 13.8 81.4 15.5 123 6.5 5-1.1 11.6 0.1 16 2.7 25.4 15.3 41 12 62.2-8.3 7.1-6.8 22.3-10.2 32.3-8.1 31.7 6.8 62 3.1 93.9 0.1 47.3-4.3 96.1-0.7 140.1 23 20.8 10.9 28 32 18.7 54.2zM490.6 831.4v2.9c66.6 0 133.2 0.4 199.7-0.2 23.8-0.2 45.1 2.5 65.8 17.1 26.9 19 57.8 7.3 62.9-25.2 8.6-55.3 14.6-110.8-28.9-158.5-26.7-29.4-42.5-66.1-36.9-107.3 5.7-41.9 15.1-83.2 21.9-125 10-61.8 24.9-122.7 12.7-186.7-9.6-50.3-6.4-56.2-68.1-63.3-7-0.8-14.2-0.3-21.2-0.3-101.3 0-202.6 0.2-303.9-0.2-15.5-0.1-31-2.3-46.4-3.9-39.4-4.2-78.6-9.9-118.1-12.4-24.7-1.6-27.2 3.1-23.2 27.1 4.2 25 9.9 49.9 13 75.1 7.2 58.1 15.3 116.2 19.1 174.5 3 45.5 8.1 91.6-7.7 136.7-11.4 32.5-22.8 65.6-28.5 99.4-5.4 31.8-3.8 64.9-4.2 97.4-0.6 42.7 2.8 46 45.6 52.1 2.1 0.3 4.2 0.6 6.3 0.6 80.1 0.1 160.1 0.1 240.1 0.1z m-196.8 47.2c-0.1-1.8-0.2-3.6-0.3-5.3h-44.6c0.1 2.7 0.3 5.5 0.4 8.2 14.8-1 29.6-1.9 44.5-2.9z" p-id="1157"></path><path d="M621.6 692.3c36.4 8.8 64.3 3 79.2-42.4 16.6 19.7 28.5 33.8 42.3 50.3H454.4c0-1.3-0.1-2.7-0.1-4H564v-210h-80.9v-6.5h82.7c0-51 0.1-99 0-146.9 0-29.4 2.6-32 31.3-27.6 10.8 1.6 21.3 4.9 27.6 6.4v171.2c12.7-5 26.6-7.3 35.9-15 9.7-8.1 15-21.6 24.8-36.8 15.3 18.6 28.3 34.3 41.3 50-0.8 1.9-1.6 3.8-2.5 5.8-26.4 0-52.9 1.2-79.3-0.4-20.1-1.2-25.2 6.2-24.8 25.4 1.2 53.1 0.4 106.2 0.4 159.4 0.1 6.8 0.8 13.7 1.1 21.1z" p-id="1158"></path><path d="M370.1 549.1c-27.2 16.8-50.8 31.4-74.3 46-0.9-1-1.7-2-2.6-3 17.2-18.2 32.3-39.1 52-53.9 26.9-20.1 18.1-62.1 52.4-77.7 8.3-3.8 9.8-22.1 16-37.6H295.3c-0.2-2.2-0.3-4.4-0.5-6.7 6.1-0.5 12.2-1.4 18.3-1.5 23.4-0.2 46.8-0.3 70.1 0 15.8 0.2 31.3 1.7 38.8-17.4 1.2-3 8.8-6.3 11.8-5.2 24.3 9.2 48.6 18.9 59.7 41.9-22.2 18.7-42.8 36-66.7 56.2 22.3 10.3 38.8 17.4 54.9 25.4 16.7 8.4 25.7 22.1 23.9 41.2-1.6 17.3-12.4 27.7-28.8 28.7-15 1-24.2-7.4-27.5-23.6-3.7-18-10.3-35.3-15.6-52.9-2.7 0.4-5.3 0.9-8 1.3-0.3 7.2-1 14.4-1 21.6-0.1 61.6 0 123.3-0.1 184.9 0 23.5-24.7 41.1-45.8 31.3-4.8-2.2-8.3-12.3-8.4-18.8-0.7-51.7-0.4-103.4-0.4-155.2 0.1-6.6 0.1-13.5 0.1-25zM356.6 296c22.9 7.9 46.8 12.5 66.7 24.1 21.3 12.4 21.1 43 1.8 55.4-8.6 5.5-22.7 9.7-30.9 6.3-7.7-3.3-11.7-17-15.7-26.7-7.2-17.5-13.2-35.5-21.9-59.1z" p-id="1159"></path></svg>